<?xml version="1.0" encoding="utf-8"?>
<!-- Generator: Adobe Illustrator 17.0.0, SVG Export Plug-In . SVG Version: 6.00 Build 0)  -->
<!DOCTYPE svg PUBLIC "-//W3C//DTD SVG 1.1//EN" "http://www.w3.org/Graphics/SVG/1.1/DTD/svg11.dtd">
<svg version="1.1" id="Layer_1" xmlns="http://www.w3.org/2000/svg" xmlns:xlink="http://www.w3.org/1999/xlink" x="0px" y="0px"
	 width="80px" height="80px" viewBox="0 0 80 80" enable-background="new 0 0 80 80" xml:space="preserve">
<path fill="#FFFFFF" d="M21.155,65.1c-2.658-2.664-4.299-6.337-4.299-10.398s1.644-7.734,4.302-10.398l18.791-19.346
	c1.579-1.509,3.726-2.438,6.09-2.438c4.873,0,8.822,3.949,8.822,8.822c0,2.364-0.932,4.514-2.447,6.096L33.626,56.781
	c-0.541,0.6-1.32,0.976-2.191,0.976c-1.623,0-2.941-1.317-2.941-2.941c0-0.87,0.379-1.656,0.982-2.194l18.794-19.349
	c0.465-0.518,0.75-1.209,0.75-1.964c0-1.623-1.317-2.941-2.941-2.941c-0.753,0-1.438,0.282-1.958,0.747L25.304,48.459
	c-1.594,1.597-2.579,3.802-2.579,6.237c0,4.876,3.952,8.828,8.828,8.828c2.441,0,4.649-0.991,6.249-2.591l18.791-19.346
	c2.582-2.647,4.176-6.269,4.176-10.266c0-8.119-6.584-14.703-14.703-14.703c-3.993,0-7.616,1.594-10.266,4.179L18.364,38.302
	c-0.541,0.6-1.32,0.976-2.191,0.976c-1.623,0-2.941-1.317-2.941-2.941c0-0.87,0.379-1.656,0.982-2.194l17.412-17.511
	c3.726-3.726,8.872-6.028,14.556-6.028c11.369,0,20.584,9.216,20.584,20.584c0,5.684-2.305,10.83-6.028,14.556L41.948,65.094
	c-2.661,2.658-6.334,4.302-10.392,4.302s-7.737-1.647-10.398-4.305L21.155,65.1z"/>
</svg>
