<?xml version="1.0" encoding="utf-8"?>
<!-- Generator: Adobe Illustrator 17.0.0, SVG Export Plug-In . SVG Version: 6.00 Build 0)  -->
<!DOCTYPE svg PUBLIC "-//W3C//DTD SVG 1.1//EN" "http://www.w3.org/Graphics/SVG/1.1/DTD/svg11.dtd">
<svg version="1.1" id="Layer_1" xmlns="http://www.w3.org/2000/svg" xmlns:xlink="http://www.w3.org/1999/xlink" x="0px" y="0px"
	 width="80px" height="80px" viewBox="0 0 80 80" enable-background="new 0 0 80 80" xml:space="preserve">
<g>
	<rect x="64.229" y="45.154" fill="#FFFFFF" width="3.607" height="11.535"/>
	<path fill="#FFFFFF" d="M37.535,45.154c0,0-0.968,0-2.162,0H23.064v11.535h14.47L37.535,45.154L37.535,45.154z"/>
	<g>
		<g>
			<path fill="#FFFFFF" d="M22.125,45.154v-0.022c-0.141,0.01-0.283,0.022-0.427,0.022c-3.185,0-5.767-2.582-5.767-5.767
				c0-3.185,2.582-5.767,5.767-5.767c0.144,0,0.285,0.011,0.427,0.022V33.62h15.87c-2.378-6.716-8.766-11.535-16.297-11.535
				c-9.555,0-17.301,7.747-17.301,17.302s7.747,17.302,17.301,17.302c7.53,0,13.919-4.819,16.297-11.535
				C37.995,45.154,22.125,45.154,22.125,45.154z"/>
		</g>
	</g>
	<path fill="#FFFFFF" d="M67.836,22.084c0,0-2.995,0-6.689,0H23.065v11.535h44.772L67.836,22.084L67.836,22.084z"/>
	<circle fill="#FFFFFF" cx="67.836" cy="50.921" r="5.767"/>
	<g>
		<path fill="#FFFFFF" d="M43.709,39.386c0.572,0,1.04,0.468,1.04,1.04v24.451c0,0.572-0.288,0.671-0.64,0.221l-2.326-2.976
			c-0.352-0.45-0.928-0.45-1.281,0l-2.326,2.976c-0.352,0.45-0.64,0.351-0.64-0.221V40.426c0-0.572,0.468-1.04,1.04-1.04
			C38.576,39.386,43.709,39.386,43.709,39.386z"/>
	</g>
	<circle fill="#FFFFFF" cx="67.836" cy="27.851" r="5.767"/>
	<rect x="44.748" y="45.154" fill="#FFFFFF" width="7.214" height="11.535"/>
	<rect x="51.962" y="45.154" fill="#FFFFFF" width="7.214" height="11.535"/>
	<rect x="59.176" y="45.154" fill="#FFFFFF" width="7.214" height="11.535"/>
</g>
</svg>
