<?xml version="1.0" encoding="utf-8"?>
<!-- Generator: Adobe Illustrator 17.0.0, SVG Export Plug-In . SVG Version: 6.00 Build 0)  -->
<!DOCTYPE svg PUBLIC "-//W3C//DTD SVG 1.1//EN" "http://www.w3.org/Graphics/SVG/1.1/DTD/svg11.dtd">
<svg version="1.1" id="Layer_1" xmlns="http://www.w3.org/2000/svg" xmlns:xlink="http://www.w3.org/1999/xlink" x="0px" y="0px"
	 width="80px" height="80px" viewBox="0 0 80 80" enable-background="new 0 0 80 80" xml:space="preserve">
<g>
	<path fill="#F1DEAC" d="M40.035,24.402c2.283,0,4.185,1.902,4.185,4.185c0,2.283-1.902,4.185-4.185,4.185s-4.185-1.902-4.185-4.185
		C35.85,26.24,37.689,24.402,40.035,24.402z"/>
	<path fill="#F1DEAC" d="M69.412,69.057c0.796,0,1.459-0.663,1.459-1.459c0-0.332-0.133-0.663-0.332-0.929L59.668,47.026
		c-0.265-0.464-0.73-0.73-1.327-0.73h-9.352c4.112-6.036,8.225-13.332,8.225-18.108c0-9.485-7.694-17.245-17.245-17.245
		S22.79,18.704,22.79,28.189c0,4.709,4.179,12.072,8.225,18.108h-9.352c-0.531,0-0.995,0.265-1.26,0.73L9.327,66.868
		c-0.265,0.464-0.265,0.995,0,1.459c0.332,0.464,0.796,0.73,1.327,0.73H69.412z M28.562,28.466c0-6.297,5.123-11.473,11.473-11.473
		c6.297,0,11.473,5.123,11.473,11.473c0,3.415-3.629,9.499-7.151,14.568c-0.587,0.8-1.174,1.601-1.708,2.401
		c-0.961,1.281-1.868,2.455-2.615,3.415c-0.747-0.961-1.654-2.081-2.615-3.415c-0.427-0.587-0.854-1.121-1.281-1.761l-0.053-0.107
		c-0.107-0.16-0.213-0.32-0.374-0.48C32.191,37.965,28.562,31.882,28.562,28.466z M35.101,51.913
		c2.587,3.515,3.608,4.532,3.807,4.863c0.265,0.332,0.663,0.531,1.128,0.531c0.464,0,0.862-0.199,1.128-0.531
		c0.265-0.332,0.869-0.747,3.854-4.859h10.971l6.407,11.533l-44.782,0l6.505-11.545L35.101,51.913z"/>
</g>
</svg>
