<?xml version="1.0" encoding="utf-8"?>
<!-- Generator: Adobe Illustrator 17.0.0, SVG Export Plug-In . SVG Version: 6.00 Build 0)  -->
<!DOCTYPE svg PUBLIC "-//W3C//DTD SVG 1.1//EN" "http://www.w3.org/Graphics/SVG/1.1/DTD/svg11.dtd">
<svg version="1.1" id="Layer_1" xmlns="http://www.w3.org/2000/svg" xmlns:xlink="http://www.w3.org/1999/xlink" x="0px" y="0px"
	 width="80px" height="80px" viewBox="0 0 80 80" enable-background="new 0 0 80 80" xml:space="preserve">
<g>
	<path fill="#935999" d="M40.869,61.7c-0.458,0-0.916-0.065-1.308-0.262l-15.374-6.82c-1.635-0.719-2.42-2.682-1.635-4.317
		c0.719-1.635,2.682-2.42,4.317-1.635l15.308,6.755c1.635,0.719,2.42,2.682,1.635,4.317C43.289,60.981,42.112,61.7,40.869,61.7z"/>
	<g>
		<path fill="#935999" d="M27.849,66.739c-1.111-0.524-4.119-1.835-5.875-14.133c-0.26-1.832-1.495-11.317,0.077-14.847
			l8.453-18.896c1.114-2.485,3.143-4.38,5.695-5.359s5.299-0.911,7.849,0.203l6.318,2.838l-2.672,5.956l-6.333-2.844
			c-0.915-0.393-1.896-0.459-2.812-0.068c-0.916,0.326-1.636,1.045-2.029,1.961l-8.453,18.896
			c-0.262,0.719-0.462,4.644,0.319,10.531c0.65,5.102,2.255,9.54,2.255,9.54S28.242,66.936,27.849,66.739z"/>
		<path fill="#935999" d="M30.641,60.516c0,0,4.382-1.752,8.625-4.659c4.916-3.332,7.714-6.09,8.077-6.765l8.492-18.878
			c0.422-0.902,0.48-1.918,0.115-2.819c-0.317-0.945-1.018-1.633-1.921-2.056l-6.335-2.838l2.672-5.956l6.321,2.832
			c2.528,1.164,4.405,3.171,5.37,5.727s0.899,5.333-0.216,7.817l-8.492,18.878c-1.591,3.522-9.497,8.907-11.038,9.931
			c-10.353,6.866-13.332,5.491-14.462,5.009C27.442,66.577,30.641,60.516,30.641,60.516z"/>
	</g>
</g>
<path fill="#935999" stroke="#935999" stroke-width="2" stroke-miterlimit="10" d="M62.4,58.65L21.35,17.6
	c-1.03-1.03-2.72-1.012-3.75,0.018c-1.03,1.03-1.012,2.683,0.018,3.714l41.05,41.05c1.03,1.03,2.683,1.049,3.714,0.018
	C63.411,61.37,63.429,59.68,62.4,58.65z"/>
</svg>
