<?xml version="1.0" encoding="utf-8"?>
<!-- Generator: Adobe Illustrator 17.0.0, SVG Export Plug-In . SVG Version: 6.00 Build 0)  -->
<!DOCTYPE svg PUBLIC "-//W3C//DTD SVG 1.1//EN" "http://www.w3.org/Graphics/SVG/1.1/DTD/svg11.dtd">
<svg version="1.1" id="Layer_1" xmlns="http://www.w3.org/2000/svg" xmlns:xlink="http://www.w3.org/1999/xlink" x="0px" y="0px"
	 width="80px" height="80px" viewBox="0 0 80 80" enable-background="new 0 0 80 80" xml:space="preserve">
<g>
	<path fill="#935999" stroke="#935999" stroke-width="5" stroke-miterlimit="10" d="M27.892,18.367v43.267
		c0,1.086,1.002,1.967,2.209,1.967c1.208,0,2.167-0.881,2.167-1.967V18.367c0-1.086-0.959-1.967-2.167-1.967
		C28.894,16.401,27.892,17.282,27.892,18.367z"/>
	<path fill="#935999" stroke="#935999" stroke-width="5" stroke-miterlimit="10" d="M47.732,18.367v43.267
		c0,1.086,1.002,1.967,2.209,1.967c1.208,0,2.167-0.881,2.167-1.967V18.367c0-1.086-0.959-1.967-2.167-1.967
		C48.733,16.401,47.732,17.282,47.732,18.367z"/>
</g>
</svg>
