<?xml version="1.0" encoding="utf-8"?>
<!-- Generator: Adobe Illustrator 17.0.0, SVG Export Plug-In . SVG Version: 6.00 Build 0)  -->
<!DOCTYPE svg PUBLIC "-//W3C//DTD SVG 1.1//EN" "http://www.w3.org/Graphics/SVG/1.1/DTD/svg11.dtd">
<svg version="1.1" id="Layer_1" xmlns="http://www.w3.org/2000/svg" xmlns:xlink="http://www.w3.org/1999/xlink" x="0px" y="0px"
	 width="80px" height="80px" viewBox="0 0 80 80" enable-background="new 0 0 80 80" xml:space="preserve">
<g>
	<path fill="#65266D" d="M57.862,10.864c-0.963-0.963-2.468-0.963-3.432,0L33.538,31.816c-0.421,0.421-0.662,1.024-0.722,1.626
		l-0.301,10.295c0,0.662,0.241,1.325,0.722,1.806c0.482,0.482,1.084,0.722,1.686,0.722h0.06l10.295-0.301
		c0.602,0,1.204-0.241,1.626-0.722L67.856,24.29c0.963-0.963,0.963-2.468,0-3.432L57.862,10.864z M44.195,41.148l-6.803,0.181
		l0.181-6.803l12.764-12.764l6.623,6.623L44.195,41.148z M60.33,24.952l-6.562-6.562l2.408-2.408l6.562,6.562L60.33,24.952z"/>
	<path fill="#65266D" d="M35.405,22.122c1.325,0,2.408-1.084,2.408-2.408c0-1.325-1.084-2.408-2.408-2.408H19.631
		c-1.325,0-2.408,1.084-2.408,2.408V59.45c0,1.325,1.084,2.408,2.408,2.408h39.736c1.325,0,2.408-1.084,2.408-2.408V42.773
		c0-1.325-1.084-2.408-2.408-2.408c-1.325,0-2.408,1.084-2.408,2.408v14.269h-34.92v-34.92H35.405z"/>
</g>
</svg>
