<?xml version="1.0" encoding="utf-8"?>
<!-- Generator: Adobe Illustrator 17.0.0, SVG Export Plug-In . SVG Version: 6.00 Build 0)  -->
<!DOCTYPE svg PUBLIC "-//W3C//DTD SVG 1.1//EN" "http://www.w3.org/Graphics/SVG/1.1/DTD/svg11.dtd">
<svg version="1.1" id="Layer_1" xmlns="http://www.w3.org/2000/svg" xmlns:xlink="http://www.w3.org/1999/xlink" x="0px" y="0px"
	 width="80px" height="80px" viewBox="0 0 80 80" enable-background="new 0 0 80 80" xml:space="preserve">
<g>
	<path fill="#F0F0F0" d="M38.35,26.08c3.659,0,6.601-3.014,6.601-6.673c0-3.588-2.942-6.601-6.601-6.601s-6.601,3.014-6.601,6.601
		C31.748,23.066,34.69,26.08,38.35,26.08z"/>
	<path fill="#F0F0F0" d="M45.381,35.336c0-3.014-2.44-5.381-5.381-5.381h-5.381c-3.014,0-5.381,2.368-5.381,5.381
		c0,2.942,2.368,5.381,5.381,5.381v15.714c-3.014,0-5.381,2.44-5.381,5.382c0,3.014,2.368,5.382,5.381,5.382h10.763
		c2.942,0,5.382-2.368,5.382-5.382c0-2.942-2.44-5.382-5.382-5.382L45.381,35.336L45.381,35.336z"/>
</g>
</svg>
