<?xml version="1.0" encoding="utf-8"?>
<!-- Generator: Adobe Illustrator 17.0.0, SVG Export Plug-In . SVG Version: 6.00 Build 0)  -->
<!DOCTYPE svg PUBLIC "-//W3C//DTD SVG 1.1//EN" "http://www.w3.org/Graphics/SVG/1.1/DTD/svg11.dtd">
<svg version="1.1" id="Layer_1" xmlns="http://www.w3.org/2000/svg" xmlns:xlink="http://www.w3.org/1999/xlink" x="0px" y="0px"
	 width="280px" height="150px" viewBox="0 0 280 150" enable-background="new 0 0 280 150" xml:space="preserve">
<g id="Logo">
	<path fill="#F1F0F0" d="M56.377,122.715c0,0,0-4.956,0-11.069V48.631l-19.087,0l0,74.084H56.377z"/>
	<g>
		<g>
			<path fill="#F1F0F0" d="M65.92,17.741c-15.812,0-28.631,12.818-28.631,28.629c0,12.465,7.968,23.063,19.087,26.994V47.077h0.036
				c-0.017-0.234-0.036-0.468-0.036-0.706c0-5.27,4.272-9.543,9.543-9.543c5.271,0,9.543,4.273,9.543,9.543
				c0,0.238-0.018,0.472-0.036,0.706h0.036v26.288c11.118-3.931,19.087-14.529,19.087-26.995
				C94.551,30.56,81.732,17.741,65.92,17.741z"/>
		</g>
	</g>
	<path fill="#F1F0F0" d="M94.551,122.715c0,0,0-4.956,0-11.069V48.631l-19.087,0l0,74.084H94.551z"/>
	<circle fill="#F1F0F0" cx="46.833" cy="122.715" r="9.543"/>
	<g>
		<g>
			<path fill="#F1F0F0" d="M128.832,74.469c-15.812,0-28.631,12.818-28.631,28.629c0,15.812,12.819,28.63,28.631,28.63
				c15.812,0,28.63-12.818,28.63-28.63C157.462,87.287,144.644,74.469,128.832,74.469z M128.832,112.642
				c-5.271,0-9.543-4.273-9.543-9.544c0-5.27,4.272-9.543,9.543-9.543c5.271,0,9.543,4.273,9.543,9.543
				C138.376,108.369,134.103,112.642,128.832,112.642z"/>
		</g>
	</g>
	<circle fill="#F1F0F0" cx="248.434" cy="82.119" r="9.543"/>
	<circle fill="#F1F0F0" cx="210.26" cy="82.119" r="9.543"/>
	<circle fill="#F1F0F0" cx="210.262" cy="103.1" r="9.543"/>
	<circle fill="#F1F0F0" cx="248.436" cy="103.1" r="9.543"/>
	<circle fill="#F1F0F0" cx="172.091" cy="82.119" r="9.543"/>
	<g>
		<g>
			<path fill="#F1F0F0" d="M200.719,103.1L200.719,103.1C200.719,103.1,200.719,103.1,200.719,103.1
				c0,5.271-4.272,9.543-9.544,9.543c-5.271,0-9.543-4.273-9.543-9.543c0,0,0,0,0,0h-19.087v-0.002c0,0.001,0,0.002,0,0.002
				c0,15.81,12.818,28.629,28.63,28.629s28.631-12.818,28.631-28.629c0,0,0,0,0-0.001H200.719z"/>
		</g>
	</g>
	<circle fill="#F1F0F0" cx="172.093" cy="103.099" r="9.543"/>
	<polygon fill="#F1F0F0" points="65.92,84.512 22.02,84.512 29.655,78.544 22.02,72.575 65.92,72.575 	"/>
	<g>
		<g>
			<path fill="#F1F0F0" d="M238.893,103.1L238.893,103.1C238.892,103.1,238.892,103.1,238.893,103.1
				c0,5.271-4.272,9.544-9.544,9.544c-5.271,0-9.543-4.273-9.543-9.543c0,0,0,0,0,0h-19.087c0,0,0,0,0,0.001
				c0,15.81,12.818,28.629,28.63,28.629c15.812,0,28.631-12.818,28.631-28.629c0,0,0-0.001,0-0.001H238.893z"/>
		</g>
	</g>
	<circle fill="#F1F0F0" cx="85.007" cy="122.715" r="9.543"/>
</g>
</svg>
