<?xml version="1.0" encoding="utf-8"?>
<!-- Generator: Adobe Illustrator 17.0.0, SVG Export Plug-In . SVG Version: 6.00 Build 0)  -->
<!DOCTYPE svg PUBLIC "-//W3C//DTD SVG 1.1//EN" "http://www.w3.org/Graphics/SVG/1.1/DTD/svg11.dtd">
<svg version="1.1" id="Layer_1" xmlns="http://www.w3.org/2000/svg" xmlns:xlink="http://www.w3.org/1999/xlink" x="0px" y="0px"
	 width="80px" height="80px" viewBox="0 0 80 80" enable-background="new 0 0 80 80" xml:space="preserve">
<g>
	<path fill="#FFFFFF" d="M35.016,61.534c0,4.961-4.037,8.998-9,8.998c-4.964,0-9.004-4.037-9.004-8.998V18.469
		c0-4.963,4.04-9.001,9.004-9.001c4.963,0,9,4.038,9,9.001V61.534z"/>
	<path fill="#FFFFFF" d="M62.987,61.534c0,4.961-4.037,8.998-9,8.998c-4.964,0-9.004-4.037-9.004-8.998V18.469
		c0-4.963,4.04-9.001,9.004-9.001c4.963,0,9,4.038,9,9.001V61.534z"/>
</g>
</svg>
