<?xml version="1.0" encoding="utf-8"?>
<!-- Generator: Adobe Illustrator 17.0.0, SVG Export Plug-In . SVG Version: 6.00 Build 0)  -->
<!DOCTYPE svg PUBLIC "-//W3C//DTD SVG 1.1//EN" "http://www.w3.org/Graphics/SVG/1.1/DTD/svg11.dtd">
<svg version="1.1" id="Layer_1" xmlns="http://www.w3.org/2000/svg" xmlns:xlink="http://www.w3.org/1999/xlink" x="0px" y="0px"
	 width="80px" height="80px" viewBox="0 0 80 80" enable-background="new 0 0 80 80" xml:space="preserve">
<g>
	<path fill="#69C5A9" d="M63.872,20.001H16.128c-1.828,0-3.316,1.495-3.316,3.333v33.332c0,0.516,0.127,1,0.337,1.437
		c0.055,0.421,0.236,0.827,0.558,1.15c0.398,0.401,0.923,0.593,1.445,0.582c0.31,0.097,0.634,0.165,0.976,0.165h47.745
		c1.828,0,3.316-1.495,3.316-3.333V23.334C67.188,21.496,65.701,20.001,63.872,20.001z M31.745,55.999H19.756l6.212-6.244
		l5.973,6.004C31.867,55.834,31.804,55.916,31.745,55.999z M37.806,55.999l-0.24-0.241l11.17-11.23
		c0.251-0.253,0.66-0.253,0.912-0.001l11.412,11.472H37.806z M63.209,52.505L52.46,41.698c-1.803-1.81-4.735-1.81-6.538,0.001
		l-11.17,11.23l-6.101-6.132c-0.717-0.721-1.67-1.119-2.684-1.119c-1.015,0-1.967,0.397-2.683,1.118l-6.493,6.527V24.001h46.419
		V52.505z M30.551,42.333c4.113,0,7.46-3.365,7.46-7.5s-3.347-7.5-7.46-7.5s-7.46,3.365-7.46,7.5S26.437,42.333,30.551,42.333z
		 M30.551,31.334c1.92,0,3.481,1.57,3.481,3.5c0,1.93-1.562,3.5-3.481,3.5s-3.481-1.57-3.481-3.5
		C27.069,32.904,28.631,31.334,30.551,31.334z"/>
</g>
</svg>
