<?xml version="1.0" encoding="utf-8"?>
<!-- Generator: Adobe Illustrator 17.0.0, SVG Export Plug-In . SVG Version: 6.00 Build 0)  -->
<!DOCTYPE svg PUBLIC "-//W3C//DTD SVG 1.1//EN" "http://www.w3.org/Graphics/SVG/1.1/DTD/svg11.dtd">
<svg version="1.1" id="Layer_1" xmlns="http://www.w3.org/2000/svg" xmlns:xlink="http://www.w3.org/1999/xlink" x="0px" y="0px"
	 width="80px" height="80px" viewBox="0 0 80 80" enable-background="new 0 0 80 80" xml:space="preserve">
<path sketch:type="MSShapeGroup" fill="#FFFFFF" d="M54.63,49.31c2.627-3.693,4.191-8.196,4.191-13.074
	c0-12.476-10.11-22.586-22.586-22.586s-22.586,10.11-22.586,22.586s10.11,22.586,22.586,22.586c4.878,0,9.381-1.561,13.074-4.191
	l10.617,10.617c0.735,0.735,1.698,1.102,2.66,1.102c0.963,0,1.929-0.37,2.66-1.102c1.472-1.472,1.472-3.851,0-5.324L54.63,49.307
	L54.63,49.31z M36.235,51.294c-8.315,0-15.058-6.743-15.058-15.058s6.743-15.058,15.058-15.058s15.058,6.743,15.058,15.058
	S44.55,51.294,36.235,51.294L36.235,51.294z"/>
</svg>
