<?xml version="1.0" encoding="utf-8"?>
<!-- Generator: Adobe Illustrator 17.0.0, SVG Export Plug-In . SVG Version: 6.00 Build 0)  -->
<!DOCTYPE svg PUBLIC "-//W3C//DTD SVG 1.1//EN" "http://www.w3.org/Graphics/SVG/1.1/DTD/svg11.dtd">
<svg version="1.1" id="Layer_1" xmlns="http://www.w3.org/2000/svg" xmlns:xlink="http://www.w3.org/1999/xlink" x="0px" y="0px"
	 width="80px" height="80px" viewBox="0 0 80 80" enable-background="new 0 0 80 80" xml:space="preserve">
<path fill="#FFFFFF" d="M55.229,67.195c-0.742,0-1.478-0.247-2.083-0.722L39.999,56.124L26.852,66.472
	c-1.015,0.797-2.396,0.946-3.556,0.382c-1.16-0.561-1.898-1.741-1.898-3.031V16.175c0-1.859,1.509-3.37,3.371-3.37H55.23
	c1.86,0,3.372,1.51,3.372,3.37v47.648c0,1.29-0.738,2.47-1.899,3.031C56.233,67.08,55.731,67.195,55.229,67.195z M39.998,48.464
	c0.736,0,1.474,0.243,2.084,0.721l9.777,7.697V19.548H28.137v37.333l9.777-7.697C38.525,48.706,39.261,48.464,39.998,48.464z"/>
</svg>
