<?xml version="1.0" encoding="utf-8"?>
<!-- Generator: Adobe Illustrator 17.0.0, SVG Export Plug-In . SVG Version: 6.00 Build 0)  -->
<!DOCTYPE svg PUBLIC "-//W3C//DTD SVG 1.1//EN" "http://www.w3.org/Graphics/SVG/1.1/DTD/svg11.dtd">
<svg version="1.1" id="Layer_1" xmlns="http://www.w3.org/2000/svg" xmlns:xlink="http://www.w3.org/1999/xlink" x="0px" y="0px"
	 width="80px" height="80px" viewBox="0 0 80 80" enable-background="new 0 0 80 80" xml:space="preserve">
<g>
	<path fill="#FFFFFF" d="M67.82,64.081c0,0-0.028-0.167-0.08-0.49c-0.048-0.322-0.144-0.805-0.307-1.439
		c-0.353-1.229-0.966-3.262-2.93-5.247c-0.966-0.972-2.269-1.83-3.728-2.39c-1.46-0.572-3.053-0.871-4.672-0.967
		c-3.251-0.194-6.64,0.343-10.128,1.179c-0.235,0.056-0.475,0.126-0.712,0.186c0.481-0.465,0.959-0.927,1.449-1.401
		c1.548-1.508,3.131-3.037,4.732-4.783c0.807-0.91,1.596-1.748,2.471-3.123c0.212-0.334,0.454-0.767,0.687-1.34l0.176-0.532
		l0.076-0.27c0.028-0.103,0.08-0.427,0.095-0.644c0.04-0.485,0.004-0.991-0.092-1.449l-0.073-0.305l-0.013-0.051
		c0.104,0.215-0.662-1.565-0.528-1.103c-0.248-0.366-0.612-0.74-0.914-0.962c-0.26-0.191-0.55-0.361-0.849-0.493
		c-0.354-0.156-0.433-0.159-0.657-0.226c-0.183-0.048-0.409-0.093-0.561-0.114l-0.371-0.033c-0.276-0.019-0.457-0.013-0.617-0.005
		c-0.699,0.036-1.098,0.127-1.5,0.21c-1.509,0.351-2.595,0.757-3.743,1.171c-1.125,0.415-2.208,0.845-3.282,1.281
		c-2.11,0.874-4.229,1.752-6.347,2.63c-3.231,1.336-6.466,2.667-9.599,3.767c1.565-1.476,3.21-2.912,4.791-4.259
		c2.914-2.464,5.77-4.735,8.433-6.803c5.333-4.134,9.901-7.466,13.103-9.78c3.207-2.281,5.039-3.584,5.039-3.584l0.102-0.072
		c0.049-0.035,0.098-0.071,0.146-0.108c2.373-1.827,2.817-5.233,0.991-7.607c-1.827-2.375-5.233-2.817-7.607-0.99
		c0,0-1.831,1.41-5.038,3.877c-3.176,2.482-7.689,6.043-13.007,10.494c-2.658,2.229-5.514,4.68-8.486,7.39
		c-1.485,1.357-2.999,2.781-4.525,4.308c-1.527,1.54-3.064,3.138-4.604,5.092c-0.768,1.016-1.549,2.006-2.336,3.741
		c-0.191,0.457-0.39,0.971-0.534,1.7c-0.068,0.374-0.13,0.745-0.123,1.289c-0.016,0.443,0.08,1.122,0.255,1.715
		c-0.005,0.011,0.325,0.867,0.194,0.52l0.021,0.047l0.043,0.093l0.1,0.208c0.096,0.19,0.204,0.377,0.322,0.558
		c0.538,0.813,0.904,1.083,1.377,1.473c0.912,0.665,1.731,0.92,2.416,1.087c1.333,0.276,2.209,0.198,3.029,0.134
		c0.808-0.08,1.495-0.216,2.16-0.363c1.324-0.299,2.5-0.673,3.658-1.065c4.569-1.596,8.746-3.537,12.928-5.447
		c0.522-0.24,1.043-0.48,1.567-0.72c-0.975,1.016-1.954,2.026-2.913,3.063c-0.723,0.787-1.437,1.579-2.153,2.454
		c-0.358,0.435-0.721,0.91-1.097,1.459c-0.199,0.315-0.386,0.585-0.612,1.057c-0.057,0.122-0.095,0.178-0.164,0.355
		c-0.067,0.172-0.127,0.347-0.18,0.525c-0.096,0.188-0.246,1.145-0.142,1.788c0.347,1.337,0.106,0.395,0.188,0.705l0.016,0.043
		c-0.045-0.108,0.147,0.374,0.295,0.588c0.166,0.268,0.373,0.521,0.6,0.735c0.251,0.235,0.474,0.379,0.548,0.419
		c0.12,0.072,0.244,0.14,0.373,0.2s0.258,0.115,0.389,0.16c0.128,0.045,0.171,0.052,0.262,0.077c0.16,0.04,0.322,0.073,0.485,0.098
		c0.16,0.023,0.22,0.021,0.335,0.031c0.219,0.013,0.409,0.011,0.529,0.001c0.589-0.033,0.915-0.111,1.246-0.179
		c0.638-0.143,1.145-0.297,1.642-0.449c0.928-0.306,1.843-0.608,2.742-0.904c1.735-0.586,3.367-1.121,4.934-1.56
		c3.119-0.883,5.984-1.396,8.297-1.337c2.343,0.036,3.902,0.696,4.794,1.527c0.922,0.829,1.356,1.919,1.604,2.702
		c0.238,0.795,0.307,1.272,0.307,1.272c0.001,0.009,0.005,0.035,0.007,0.045c0.238,1.456,1.609,2.444,3.065,2.208
		C67.069,66.91,68.058,65.537,67.82,64.081z M36.712,57.237h0.037C36.685,57.245,36.651,57.246,36.712,57.237z"/>
</g>
</svg>
