<?xml version="1.0" encoding="utf-8"?>
<!-- Generator: Adobe Illustrator 17.0.0, SVG Export Plug-In . SVG Version: 6.00 Build 0)  -->
<!DOCTYPE svg PUBLIC "-//W3C//DTD SVG 1.1//EN" "http://www.w3.org/Graphics/SVG/1.1/DTD/svg11.dtd">
<svg version="1.1" id="Layer_1" xmlns="http://www.w3.org/2000/svg" xmlns:xlink="http://www.w3.org/1999/xlink" x="0px" y="0px"
	 width="80px" height="80px" viewBox="0 0 80 80" enable-background="new 0 0 80 80" xml:space="preserve">
<g id="Layer_2">
</g>
<g id="Layer_1_1_">
	<g>
		<g>
			<g>
				<path fill="#F0F0F0" d="M55.689,48.478c0,0-1.652,0-3.69,0H30.991v16.466h24.698C55.689,64.944,55.689,48.478,55.689,48.478z"/>
				<g>
					<g>
						<path fill="#F0F0F0" d="M30.991,48.478L30.991,48.478L30.991,48.478c-4.547,0-8.233-3.685-8.233-8.233
							c0-4.547,3.686-8.233,8.233-8.233l0,0l0,0h23.287C50.887,22.42,41.744,15.546,30.99,15.546
							c-13.639,0-24.697,11.058-24.697,24.699S17.351,64.944,30.99,64.944c10.753,0,19.896-6.874,23.287-16.466H30.991z"/>
					</g>
				</g>
				<path fill="#F0F0F0" d="M55.689,15.547c0,0-1.652,0-3.69,0H30.991v16.466h24.698C55.689,32.013,55.689,15.547,55.689,15.547z"/>
				<circle fill="#F0F0F0" cx="55.689" cy="23.78" r="8.233"/>
				<circle fill="#F0F0F0" cx="55.689" cy="56.711" r="8.233"/>
			</g>
		</g>
		<rect x="34.911" y="48.478" fill="#69C4A8" width="10.305" height="5.489"/>
		<rect x="34.911" y="53.967" fill="#B6D5ED" width="10.305" height="5.489"/>
		<rect x="34.911" y="59.456" fill="#67276D" width="10.305" height="5.489"/>
		<rect x="34.911" y="64.945" fill="#D52053" width="10.305" height="4.464"/>
		<g>
			<path fill="#F3E0AB" d="M45.216,44.015c0-0.564-0.461-1.025-1.025-1.025h-8.254c-0.564,0-1.025,0.461-1.025,1.025v3.438
				c0,0.564,0.461,1.025,1.026,1.025h8.254c0.564,0,1.025-0.461,1.025-1.025L45.216,44.015L45.216,44.015z"/>
		</g>
		<g>
			<path fill="#D52053" d="M44.189,67.689c0.564,0,1.025,0.461,1.025,1.026l-0.002,6.255c0,0.564-0.285,0.662-0.632,0.218
				l-3.886-4.97c-0.347-0.444-0.916-0.444-1.263,0l-3.886,4.97c-0.347,0.444-0.631,0.346-0.631-0.218l0.002-6.255
				c0-0.564,0.462-1.025,1.026-1.025L44.189,67.689z"/>
		</g>
		<rect x="34.911" y="46.149" fill="#F3E0AB" width="10.305" height="2.331"/>
	</g>
</g>
</svg>
