<?xml version="1.0" encoding="utf-8"?>
<!-- Generator: Adobe Illustrator 17.0.0, SVG Export Plug-In . SVG Version: 6.00 Build 0)  -->
<!DOCTYPE svg PUBLIC "-//W3C//DTD SVG 1.1//EN" "http://www.w3.org/Graphics/SVG/1.1/DTD/svg11.dtd">
<svg version="1.1" id="Layer_1" xmlns="http://www.w3.org/2000/svg" xmlns:xlink="http://www.w3.org/1999/xlink" x="0px" y="0px"
	 width="80px" height="80px" viewBox="0 0 80 80" enable-background="new 0 0 80 80" xml:space="preserve">
<g>
	<g>
		<g>
			<path fill="#FFFFFF" d="M55.689,48.478c0,0-1.652,0-3.69,0l-21.008,0l0,16.466l24.698,0V48.478z"/>
			<g>
				<g>
					<path fill="#FFFFFF" d="M30.991,48.478L30.991,48.478C30.991,48.478,30.991,48.478,30.991,48.478
						c-4.547,0-8.233-3.685-8.233-8.233c0-4.547,3.686-8.233,8.233-8.233c0,0,0,0,0,0l0,0h23.287
						c-3.391-9.592-12.534-16.466-23.288-16.466c-13.639,0-24.697,11.058-24.697,24.699S17.351,64.944,30.99,64.944
						c10.753,0,19.896-6.874,23.287-16.466H30.991z"/>
				</g>
			</g>
			<path fill="#FFFFFF" d="M55.689,15.547c0,0-1.652,0-3.69,0l-21.008,0l0,16.466l24.698,0V15.547z"/>
			<circle fill="#FFFFFF" cx="55.689" cy="23.78" r="8.233"/>
			<circle fill="#FFFFFF" cx="55.689" cy="56.711" r="8.233"/>
		</g>
	</g>
	<rect x="34.911" y="48.478" fill="#FFFFFF" width="10.305" height="5.489"/>
	<rect x="34.911" y="53.967" fill="#FFFFFF" width="10.305" height="5.489"/>
	<rect x="34.911" y="59.456" fill="#FFFFFF" width="10.305" height="5.489"/>
	<rect x="34.911" y="64.945" fill="#FFFFFF" width="10.305" height="4.464"/>
	<g>
		<path fill="#FFFFFF" d="M45.216,44.015c0-0.564-0.461-1.025-1.025-1.025h-8.254c-0.564,0-1.025,0.461-1.025,1.025l0,3.438
			c0,0.564,0.461,1.025,1.026,1.025h8.254c0.564,0,1.025-0.461,1.025-1.025V44.015z"/>
	</g>
	<g>
		<path fill="#FFFFFF" d="M44.189,67.689c0.564,0,1.025,0.461,1.025,1.026l-0.002,6.255c0,0.564-0.285,0.662-0.632,0.218
			l-3.886-4.97c-0.347-0.444-0.916-0.444-1.263,0l-3.886,4.97c-0.347,0.444-0.631,0.346-0.631-0.218l0.002-6.255
			c0-0.564,0.462-1.025,1.026-1.025L44.189,67.689z"/>
	</g>
	<rect x="34.911" y="46.149" fill="#FFFFFF" width="10.305" height="2.331"/>
</g>
</svg>
