<?xml version="1.0" encoding="utf-8"?>
<!-- Generator: Adobe Illustrator 17.0.0, SVG Export Plug-In . SVG Version: 6.00 Build 0)  -->
<!DOCTYPE svg PUBLIC "-//W3C//DTD SVG 1.1//EN" "http://www.w3.org/Graphics/SVG/1.1/DTD/svg11.dtd">
<svg version="1.1" id="Layer_1" xmlns="http://www.w3.org/2000/svg" xmlns:xlink="http://www.w3.org/1999/xlink" x="0px" y="0px"
	 width="80px" height="80px" viewBox="0 0 80 80" enable-background="new 0 0 80 80" xml:space="preserve">
<g>
	<rect x="65.229" y="41.154" fill="#F1DEAC" width="3.607" height="11.535"/>
	<path d="M38.535,41.154c0,0-0.968,0-2.162,0H24.064l0,11.535l14.47,0V41.154z"/>
	<g>
		<g>
			<path d="M23.125,41.154v-0.022c-0.141,0.01-0.283,0.022-0.427,0.022c-3.185,0-5.767-2.582-5.767-5.767
				c0-3.185,2.582-5.767,5.767-5.767c0.144,0,0.285,0.011,0.427,0.022v-0.022h15.87c-2.378-6.716-8.766-11.535-16.297-11.535
				c-9.555,0-17.301,7.747-17.301,17.302s7.747,17.302,17.301,17.302c7.53,0,13.919-4.819,16.297-11.535H23.125z"/>
		</g>
	</g>
	<path d="M68.836,18.084c0,0-2.995,0-6.689,0l-38.082,0l0,11.535l44.772,0V18.084z"/>
	<circle fill="#F1DEAC" cx="68.836" cy="46.921" r="5.767"/>
	<g>
		<path fill="#D32250" d="M44.709,35.386c0.572,0,1.04,0.468,1.04,1.04l0,24.451c0,0.572-0.288,0.671-0.64,0.221l-2.326-2.976
			c-0.352-0.45-0.928-0.45-1.281,0l-2.326,2.976c-0.352,0.45-0.64,0.351-0.64-0.221V36.426c0-0.572,0.468-1.04,1.04-1.04H44.709z"/>
	</g>
	<circle cx="68.836" cy="23.851" r="5.767"/>
	<rect x="45.748" y="41.154" fill="#66266D" width="7.214" height="11.535"/>
	<rect x="52.962" y="41.154" fill="#B5D2ED" width="7.214" height="11.535"/>
	<rect x="60.176" y="41.154" fill="#69C5A9" width="7.214" height="11.535"/>
</g>
</svg>
