<?xml version="1.0" encoding="utf-8"?>
<!-- Generator: Adobe Illustrator 17.0.0, SVG Export Plug-In . SVG Version: 6.00 Build 0)  -->
<!DOCTYPE svg PUBLIC "-//W3C//DTD SVG 1.1//EN" "http://www.w3.org/Graphics/SVG/1.1/DTD/svg11.dtd">
<svg version="1.1" id="Layer_1" xmlns="http://www.w3.org/2000/svg" xmlns:xlink="http://www.w3.org/1999/xlink" x="0px" y="0px"
	 width="80px" height="80px" viewBox="0 0 80 80" enable-background="new 0 0 80 80" xml:space="preserve">
<g>
	<path fill="#F1DDAC" d="M36.59,67.188H13.501c-1.831,0-3.27-1.439-3.27-3.27s1.439-3.27,3.27-3.27H36.59
		c1.831,0,3.27,1.439,3.27,3.27C39.86,65.749,38.356,67.188,36.59,67.188z"/>
	<path fill="#F1DDAC" d="M47.905,61.694c-0.458,0-0.916-0.065-1.308-0.262l-15.374-6.82c-1.635-0.719-2.42-2.682-1.635-4.317
		c0.719-1.635,2.682-2.42,4.317-1.635l15.308,6.755c1.635,0.719,2.42,2.682,1.635,4.317C50.325,60.975,49.148,61.694,47.905,61.694z
		"/>
	<g>
		<path fill="#F1DDAC" d="M34.885,66.733c-1.111-0.524-4.119-1.835-5.875-14.133c-0.26-1.832-1.495-11.317,0.077-14.847
			l8.453-18.896c1.114-2.485,3.143-4.38,5.695-5.359s5.299-0.911,7.849,0.203l6.318,2.838l-2.672,5.956l-6.333-2.844
			c-0.915-0.393-1.896-0.459-2.812-0.068c-0.916,0.326-1.636,1.045-2.029,1.961L35.103,40.44c-0.262,0.719-0.462,4.644,0.319,10.531
			c0.65,5.102,2.255,9.54,2.255,9.54S35.278,66.93,34.885,66.733z"/>
		<path fill="#F1DDAC" d="M37.677,60.51c0,0,4.382-1.752,8.625-4.659c4.916-3.332,7.714-6.09,8.077-6.765l8.492-18.878
			c0.422-0.902,0.48-1.918,0.115-2.819c-0.317-0.945-1.018-1.633-1.921-2.056l-6.335-2.838l2.672-5.956l6.321,2.832
			c2.528,1.164,4.405,3.171,5.37,5.727s0.899,5.333-0.216,7.817l-8.492,18.878c-1.591,3.522-9.497,8.907-11.038,9.931
			c-10.353,6.866-13.332,5.491-14.462,5.009C34.478,66.571,37.677,60.51,37.677,60.51z"/>
	</g>
</g>
</svg>
