<svg xmlns="http://www.w3.org/2000/svg" data-name="Layer 1" viewBox="0 0 100 125" x="0px" y="0px"><title>11</title><g data-name="Group"><path data-name="Path" d="M35.9,87a22.9,22.9,0,0,0,16.2-6.7l7.6-7.6a3,3,0,1,0-4.2-4.2l-7.6,7.6a16.9,16.9,0,1,1-24-24l7.6-7.6a3,3,0,0,0-4.2-4.2l-7.6,7.6A22.9,22.9,0,0,0,35.9,87Z"/><path data-name="Path" d="M47.9,19.7l-7.6,7.6a3,3,0,0,0,4.2,4.2l7.6-7.6a16.9,16.9,0,0,1,24,24l-7.7,7.7a3,3,0,1,0,4.2,4.2l7.7-7.7A22.9,22.9,0,0,0,47.9,19.7Z"/><path data-name="Path" d="M39.1,63.9a3,3,0,0,0,2.1-.9L63,41.2A3,3,0,0,0,58.8,37L37,58.8a3,3,0,0,0,2.1,5.1Z"/></g><text x="0" y="115" fill="#000000" font-size="5px" font-weight="bold" font-family="'Helvetica Neue', Helvetica, Arial-Unicode, Arial, Sans-serif">Created by Naveen</text><text x="0" y="120" fill="#000000" font-size="5px" font-weight="bold" font-family="'Helvetica Neue', Helvetica, Arial-Unicode, Arial, Sans-serif">from the Noun Project</text></svg>