<?xml version="1.0" encoding="utf-8"?>
<!-- Generator: Adobe Illustrator 17.0.0, SVG Export Plug-In . SVG Version: 6.00 Build 0)  -->
<!DOCTYPE svg PUBLIC "-//W3C//DTD SVG 1.1//EN" "http://www.w3.org/Graphics/SVG/1.1/DTD/svg11.dtd">
<svg version="1.1" id="Layer_1" xmlns="http://www.w3.org/2000/svg" xmlns:xlink="http://www.w3.org/1999/xlink" x="0px" y="0px"
	 width="80px" height="80px" viewBox="0 0 80 80" enable-background="new 0 0 80 80" xml:space="preserve">
<g>
	<circle fill="#D32250" cx="40" cy="69.05" r="2.615"/>
	<path fill="#D32250" d="M64.705,36.694c0-1.392-1.218-2.61-2.61-2.61c-1.392,0-2.61,1.218-2.61,2.61
		c0,10.787-8.699,19.486-19.486,19.486s-19.486-8.699-19.486-19.486c0-1.392-1.218-2.61-2.61-2.61c-1.392,0-2.61,1.218-2.61,2.61
		c0,12.875,9.39,23.42,22.091,24.464v7.892h5.229v-7.892C54.878,60.337,64.705,49.221,64.705,36.694L64.705,36.694z"/>
	<g>
		<g>
			<path fill="#D32250" d="M40,8.335c-7.481,0-13.571,6.089-13.571,13.571v15.136c0,7.481,6.089,13.571,13.571,13.571
				s13.571-6.089,13.571-13.571V21.906C53.571,14.425,47.481,8.335,40,8.335z M48.351,37.042c0,4.523-3.654,8.351-8.351,8.351
				s-8.351-3.654-8.351-8.351V21.906c0-4.524,3.654-8.351,8.351-8.351s8.351,3.654,8.351,8.351V37.042z"/>
		</g>
	</g>
</g>
</svg>
