<?xml version="1.0" encoding="utf-8"?>
<!-- Generator: Adobe Illustrator 17.0.0, SVG Export Plug-In . SVG Version: 6.00 Build 0)  -->
<!DOCTYPE svg PUBLIC "-//W3C//DTD SVG 1.1//EN" "http://www.w3.org/Graphics/SVG/1.1/DTD/svg11.dtd">
<svg version="1.1" id="Layer_1" xmlns="http://www.w3.org/2000/svg" xmlns:xlink="http://www.w3.org/1999/xlink" x="0px" y="0px"
	 width="80px" height="80px" viewBox="0 0 80 80" enable-background="new 0 0 80 80" xml:space="preserve">
<path fill="#65266D" d="M64.771,33.052L45.438,13.718c-0.604-0.604-1.51-0.906-2.115-0.906H20.666c-3.323,0-6.344,3.021-6.344,6.344
	v41.688c0,3.323,3.021,6.344,6.344,6.344H58.73c3.625,0,6.948-3.021,6.948-6.948V35.167C65.678,34.562,65.375,33.656,64.771,33.052z
	 M56.917,33.958H45.438c-0.604,0-0.906-0.302-0.906-0.906V21.573L56.917,33.958z M58.73,61.146H20.666l-0.302-0.302V19.156
	l0.302-0.302H38.49v14.198c0,3.927,3.021,6.948,6.948,6.948h14.198v20.24C59.636,60.844,59.334,61.146,58.73,61.146z"/>
</svg>
