<?xml version="1.0" encoding="utf-8"?>
<!-- Generator: Adobe Illustrator 17.0.0, SVG Export Plug-In . SVG Version: 6.00 Build 0)  -->
<!DOCTYPE svg PUBLIC "-//W3C//DTD SVG 1.1//EN" "http://www.w3.org/Graphics/SVG/1.1/DTD/svg11.dtd">
<svg version="1.1" id="Layer_1" xmlns="http://www.w3.org/2000/svg" xmlns:xlink="http://www.w3.org/1999/xlink" x="0px" y="0px"
	 width="80px" height="80px" viewBox="0 0 80 80" enable-background="new 0 0 80 80" xml:space="preserve">
<g>
	<path fill="#FFFFFF" stroke="#FFFFFF" stroke-width="7" stroke-miterlimit="10" d="M23.592,13.916v52.169
		c0,1.309,1.208,2.372,2.664,2.372c1.457,0,2.613-1.062,2.613-2.372V13.916c0-1.309-1.156-2.372-2.613-2.372
		C24.8,11.545,23.592,12.607,23.592,13.916z"/>
	<path fill="#FFFFFF" stroke="#FFFFFF" stroke-width="7" stroke-miterlimit="10" d="M51.131,13.916v52.169
		c0,1.309,1.208,2.372,2.664,2.372c1.457,0,2.613-1.062,2.613-2.372V13.916c0-1.309-1.156-2.372-2.613-2.372
		C52.339,11.545,51.131,12.607,51.131,13.916z"/>
</g>
</svg>
