<?xml version="1.0" encoding="utf-8"?>
<!-- Generator: Adobe Illustrator 17.0.0, SVG Export Plug-In . SVG Version: 6.00 Build 0)  -->
<!DOCTYPE svg PUBLIC "-//W3C//DTD SVG 1.1//EN" "http://www.w3.org/Graphics/SVG/1.1/DTD/svg11.dtd">
<svg version="1.1" id="Layer_1" xmlns="http://www.w3.org/2000/svg" xmlns:xlink="http://www.w3.org/1999/xlink" x="0px" y="0px"
	 width="33px" height="53.048px" viewBox="0 0 33 53.048" enable-background="new 0 0 33 53.048" xml:space="preserve">
<g>
	<path fill="#935999" stroke="#935999" stroke-width="5.8055" stroke-miterlimit="10" d="M1.767,4.817v43.267
		c0,1.086,1.002,1.967,2.209,1.967c1.208,0,2.167-0.881,2.167-1.967V4.817c0-1.086-0.959-1.967-2.167-1.967
		C2.769,2.851,1.767,3.732,1.767,4.817z"/>
	<path fill="#935999" stroke="#935999" stroke-width="5.8055" stroke-miterlimit="10" d="M24.607,4.817v43.267
		c0,1.086,1.002,1.967,2.209,1.967c1.208,0,2.167-0.881,2.167-1.967V4.817c0-1.086-0.959-1.967-2.167-1.967
		C25.608,2.851,24.607,3.732,24.607,4.817z"/>
</g>
</svg>
