<?xml version="1.0" encoding="utf-8"?>
<!-- Generator: Adobe Illustrator 17.0.0, SVG Export Plug-In . SVG Version: 6.00 Build 0)  -->
<!DOCTYPE svg PUBLIC "-//W3C//DTD SVG 1.1//EN" "http://www.w3.org/Graphics/SVG/1.1/DTD/svg11.dtd">
<svg version="1.1" id="Layer_1" xmlns="http://www.w3.org/2000/svg" xmlns:xlink="http://www.w3.org/1999/xlink" x="0px" y="0px"
	 width="56.38px" height="53.05px" viewBox="-12.815 0 56.38 53.05" enable-background="new -12.815 0 56.38 53.05"
	 xml:space="preserve">
<g>
	<path fill="#65266D" stroke="#65266D" stroke-width="2" stroke-miterlimit="10" d="M15.375,14.133
		c13.69,0,24.785,11.096,24.785,24.785H21.809c0.012-0.166,0.025-0.33,0.025-0.5c0-3.734-2.891-6.759-6.459-6.759
		s-6.459,3.026-6.459,6.759c0,0.169,0.012,0.334,0.024,0.5H-9.41C-9.41,25.228,1.687,14.133,15.375,14.133 M15.375,11.729
		c-14.992,0-27.188,12.196-27.188,27.188c0,1.327,1.077,2.403,2.403,2.403H8.94c0.667,0,1.304-0.276,1.758-0.765
		c0.454-0.489,0.686-1.143,0.639-1.809c-0.008-0.125-0.018-0.226-0.018-0.329c0-2.402,1.819-4.356,4.056-4.356
		s4.056,1.954,4.056,4.356c0,0.097-0.01,0.192-0.016,0.287c-0.048,0.667,0.181,1.341,0.636,1.829
		c0.455,0.488,1.09,0.786,1.758,0.786H40.16c1.327,0,2.403-1.077,2.403-2.403C42.563,23.925,30.367,11.729,15.375,11.729
		L15.375,11.729z"/>
	<path fill="#65266D" stroke="#65266D" stroke-width="2" stroke-miterlimit="10" d="M21.496,29.157
		c-0.43,0.506-1.19,0.566-1.696,0.135l0,0c-0.504-0.43-0.565-1.19-0.132-1.694l5.604-6.552c0.43-0.505,1.19-0.565,1.694-0.135l0,0
		c0.506,0.431,0.566,1.19,0.133,1.694L21.496,29.157z"/>
</g>
</svg>
