<?xml version="1.0" encoding="utf-8"?>
<!-- Generator: Adobe Illustrator 17.0.0, SVG Export Plug-In . SVG Version: 6.00 Build 0)  -->
<!DOCTYPE svg PUBLIC "-//W3C//DTD SVG 1.1//EN" "http://www.w3.org/Graphics/SVG/1.1/DTD/svg11.dtd">
<svg version="1.1" id="Layer_1" xmlns="http://www.w3.org/2000/svg" xmlns:xlink="http://www.w3.org/1999/xlink" x="0px" y="0px"
	 width="80px" height="80px" viewBox="0 0 80 80" enable-background="new 0 0 80 80" xml:space="preserve">
<g>
	<g>
		<path fill="#FFFFFF" d="M58.481,55.057l-7.773-7.773c1.923-2.704,3.068-6,3.068-9.572c0-9.135-7.403-16.538-16.538-16.538
			S20.7,28.577,20.7,37.712s7.403,16.538,16.538,16.538c3.572,0,6.869-1.143,9.573-3.069l7.774,7.774
			c0.538,0.538,1.243,0.807,1.948,0.807c0.705,0,1.412-0.271,1.948-0.807C59.559,57.878,59.559,56.135,58.481,55.057z
			 M37.276,48.837c-6.089,0-11.026-4.937-11.026-11.026s4.937-11.026,11.026-11.026s11.026,4.937,11.026,11.026
			S43.365,48.837,37.276,48.837z"/>
	</g>
</g>
</svg>
